<?xml version="1.0" standalone="no"?>
<!DOCTYPE svg PUBLIC "-//W3C//DTD SVG 20010904//EN"
 "http://www.w3.org/TR/2001/REC-SVG-20010904/DTD/svg10.dtd">
<svg version="1.0" xmlns="http://www.w3.org/2000/svg"
 width="816.000000pt" height="1056.000000pt" viewBox="0 0 816.000000 1056.000000"
 preserveAspectRatio="xMidYMid meet">

<g transform="translate(0.000000,1056.000000) scale(0.100000,-0.100000)"
fill="#000000" stroke="none">
<path d="M0 5280 l0 -5280 4080 0 4080 0 0 5280 0 5280 -4080 0 -4080 0 0
-5280z m7440 2140 c0 -487 -3 -740 -10 -740 -5 0 -10 8 -10 19 0 13 -10 20
-36 24 -37 6 -124 -1 -124 -11 0 -2 10 -14 23 -25 15 -13 18 -21 10 -24 -7 -3
-13 -12 -13 -22 0 -9 -9 -23 -20 -31 -25 -18 -26 -50 -2 -51 31 -1 95 -8 97
-11 1 -2 0 -22 -3 -45 l-4 -43 -74 0 c-72 0 -74 -1 -74 -25 0 -28 6 -28 -340
-29 l-145 -1 -1 -65 c-1 -36 -2 -70 -3 -77 0 -6 -21 -15 -46 -19 -25 -3 -45
-8 -45 -11 0 -15 34 -34 64 -35 44 -2 37 -18 -8 -18 -29 0 -34 -4 -40 -31 -3
-17 -3 -36 0 -41 4 -6 -2 -8 -15 -3 -16 5 -21 2 -21 -12 -1 -17 -1 -17 -11 0
-5 9 -8 21 -5 25 2 4 -1 15 -8 24 -11 15 -13 14 -13 -12 0 -17 -3 -33 -7 -37
-4 -4 -109 -8 -234 -9 -125 -2 -230 -3 -234 -3 -5 -1 -8 -10 -8 -21 0 -13 7
-20 20 -20 11 0 20 -4 20 -10 0 -5 -8 -10 -19 -10 -15 0 -19 -10 -25 -57 -5
-46 -4 -60 8 -69 12 -8 13 -13 4 -22 -9 -9 -5 -12 17 -12 23 0 27 -3 15 -10
-8 -5 -31 -10 -51 -10 -29 0 -38 -5 -47 -25 -7 -14 -12 -32 -12 -40 0 -9 -6
-12 -17 -8 -11 4 -12 8 -5 11 7 2 12 10 12 18 0 17 -44 64 -60 64 -14 0 -74
-60 -83 -83 -4 -11 -16 -17 -34 -16 -24 2 -25 2 -5 6 21 4 32 33 12 33 -5 0
-10 14 -10 30 0 27 -3 30 -30 30 -16 0 -30 -4 -30 -10 0 -6 -33 -10 -80 -10
l-80 0 0 -41 0 -41 -40 7 c-22 4 -58 4 -80 0 -34 -6 -40 -10 -40 -32 0 -14 8
-32 18 -39 16 -13 16 -13 0 -14 -19 0 -19 -3 -21 -112 -1 -39 -5 -48 -19 -48
-10 0 -18 -6 -18 -12 0 -8 -3 -9 -8 -3 -9 13 -35 18 -27 5 12 -19 -21 -10 -35
10 -8 11 -22 20 -32 20 -15 0 -18 -8 -18 -44 0 -26 5 -46 13 -49 6 -3 -135 -5
-314 -6 l-327 -1 -9 52 c-5 29 -6 89 -2 134 4 44 5 92 4 107 -2 15 1 27 6 27
5 0 9 -9 9 -20 0 -13 7 -20 20 -20 13 0 20 7 20 20 0 17 7 20 50 20 28 0 50 5
50 10 0 6 10 10 23 9 21 0 21 -1 2 -9 -14 -6 5 -9 58 -9 45 -1 77 3 77 9 0 6
-9 10 -20 10 -11 0 -20 4 -20 10 0 5 3 9 8 9 36 -6 47 35 12 46 -11 3 -20 10
-20 15 0 4 9 6 20 3 15 -4 20 0 20 16 0 14 -6 21 -19 21 -15 0 -19 6 -18 27 2
24 -2 29 -33 34 -29 5 -31 7 -8 8 38 2 58 11 58 28 0 8 5 11 10 8 6 -3 10 -1
10 4 0 6 -8 12 -17 12 -17 1 -17 2 0 6 9 2 17 14 17 26 0 21 4 22 87 20 49 -2
99 0 111 2 23 6 23 7 8 30 -21 33 -3 32 22 0 25 -32 72 -35 72 -5 0 11 -4 20
-10 20 -5 0 -10 9 -10 20 0 11 -4 20 -10 20 -5 0 -10 9 -10 20 0 11 5 20 10
20 6 0 10 7 10 16 0 9 9 18 20 21 22 6 27 38 8 47 -10 5 -10 7 0 12 7 3 12 24
12 49 0 38 3 43 28 48 15 3 57 3 95 1 63 -5 68 -3 77 18 6 17 9 19 9 6 1 -12
9 -18 26 -18 24 0 26 2 20 38 -5 29 -4 33 5 20 18 -29 40 -22 40 11 0 16 6 31
13 34 7 2 11 21 10 50 -1 36 2 47 13 47 22 0 53 32 36 38 -23 7 -12 22 18 22
30 0 41 -15 18 -22 -16 -6 35 -58 56 -58 12 0 16 15 18 68 l3 67 38 3 c29 3
37 7 37 23 0 12 -7 19 -20 19 -11 0 -20 5 -20 10 0 6 -7 10 -15 10 -8 0 -15 5
-15 10 0 6 11 10 25 10 14 0 25 6 26 13 0 10 2 10 6 0 2 -7 12 -13 21 -13 15
0 15 2 2 10 -8 5 -10 10 -5 10 6 0 16 13 23 28 11 27 15 28 75 26 34 -1 47 0
30 3 -31 4 -33 7 -33 43 0 22 -5 40 -12 42 -10 4 -10 11 1 34 12 24 15 26 19
11 2 -13 9 -16 20 -12 10 4 38 7 65 6 36 -2 47 2 47 13 0 9 -12 16 -32 19 -18
2 9 5 60 5 l92 2 0 30 c0 17 5 30 10 30 6 0 10 -13 10 -30 0 -16 5 -30 10 -30
6 0 10 16 10 36 0 38 18 64 44 64 9 0 16 8 16 19 0 11 6 22 13 24 9 4 8 8 -3
16 -10 7 -11 11 -2 11 7 0 12 13 12 31 0 26 -3 31 -20 26 -33 -9 -23 8 13 21
40 14 58 15 37 2 -11 -7 0 -10 38 -10 28 0 52 -4 52 -10 0 -5 18 -10 40 -10
33 0 40 3 40 20 0 43 37 7 42 -41 3 -31 6 -34 41 -37 41 -4 47 6 17 28 -11 8
-20 22 -20 32 0 10 -4 18 -10 18 -5 0 -10 5 -10 10 0 18 35 11 50 -10 8 -11
18 -20 22 -20 4 0 8 9 8 20 0 11 4 20 8 20 4 0 14 -9 22 -20 8 -11 17 -20 21
-20 12 0 18 71 12 136 -5 54 -9 64 -24 64 -11 0 -19 5 -19 10 0 6 9 10 20 10
12 0 24 9 28 21 5 11 11 20 15 20 4 -1 19 -1 34 -1 35 0 18 19 -20 22 -15 1
-27 6 -27 10 0 12 68 10 75 -2 3 -5 17 -10 31 -10 13 0 24 -4 24 -10 0 -5 5
-10 10 -10 6 0 10 7 10 15 0 8 6 12 14 9 8 -3 17 -1 21 5 3 6 33 11 66 11 33
0 59 4 59 10 0 6 -31 10 -72 10 -39 0 -69 2 -67 4 6 7 58 14 102 15 26 1 37 5
37 16 0 8 -5 15 -12 15 -7 0 -6 6 4 18 20 23 22 141 2 149 -16 6 -1 25 29 36
24 9 22 47 -3 47 -11 0 -20 5 -20 10 0 13 16 13 41 0 10 -6 19 -19 19 -30 0
-17 9 -19 94 -22 115 -4 126 -2 126 23 0 10 5 19 10 19 6 0 10 -9 10 -21 0
-12 5 -19 13 -16 6 2 12 9 11 15 -1 7 -2 28 -2 47 -2 28 -6 35 -22 35 -11 0
-20 5 -20 10 0 6 5 10 10 10 6 0 10 17 10 38 0 27 3 33 10 22 7 -10 10 6 10
56 0 39 3 74 7 77 3 4 21 7 40 7 l33 0 0 -740z m-6234 447 c4 -4 -2 -7 -14 -7
-11 0 -24 -4 -27 -10 -6 -10 23 -14 77 -10 26 1 27 0 34 -79 l7 -81 46 -2 46
-2 -47 -3 c-43 -4 -48 -7 -48 -29 0 -23 2 -24 75 -24 41 0 75 -2 75 -4 0 -2 3
-11 6 -20 5 -14 -5 -16 -75 -16 l-81 0 0 -30 0 -30 74 0 c56 0 75 4 80 15 3
10 19 15 46 15 37 0 41 2 38 22 -2 11 3 23 10 25 7 3 12 -3 12 -14 0 -10 10
-24 21 -32 18 -10 19 -15 8 -22 -11 -7 -11 -9 3 -9 9 0 19 6 21 13 3 6 6 -30
6 -80 1 -55 5 -93 11 -93 6 0 10 33 10 79 0 60 3 80 15 84 8 4 17 2 20 -3 4
-6 16 -10 28 -10 12 0 18 -4 12 -8 -12 -9 -16 -44 -4 -36 5 3 9 -20 9 -50 0
-56 0 -56 30 -56 23 0 30 4 30 20 0 13 7 20 20 20 13 0 20 -7 20 -20 0 -20 22
-25 97 -22 15 1 20 -3 16 -14 -3 -8 -2 -30 1 -49 6 -31 11 -35 36 -35 17 0 30
5 30 10 0 6 7 10 16 10 8 0 12 5 9 10 -4 6 10 10 34 10 32 0 39 -3 36 -17 -2
-10 -4 -24 -4 -30 -1 -7 -8 -13 -16 -13 -8 0 -15 -9 -15 -20 0 -13 7 -20 20
-20 13 0 20 -7 20 -20 0 -24 6 -25 27 -5 18 19 33 16 47 -9 8 -14 8 -20 -1
-23 -17 -6 -17 -60 0 -67 10 -5 10 -7 0 -12 -20 -9 -15 -24 7 -24 12 0 20 -7
20 -16 0 -20 24 -44 44 -44 9 0 16 -8 16 -20 0 -11 5 -20 10 -20 6 0 10 20 10
45 0 25 5 45 10 45 6 0 10 -16 10 -35 0 -19 5 -35 10 -35 6 0 10 -9 10 -20 0
-11 -4 -20 -10 -20 -5 0 -10 -9 -10 -20 0 -22 -2 -22 125 -21 44 0 74 -2 68
-5 -14 -6 -18 -33 -5 -35 4 -1 20 -3 36 -5 45 -5 44 -14 -2 -14 -40 0 -42 -1
-42 -30 0 -23 4 -30 20 -30 11 0 20 -4 20 -10 0 -5 14 -10 30 -10 17 0 30 -4
30 -10 0 -15 57 -12 63 3 4 9 8 8 17 -3 9 -11 13 -12 17 -2 6 14 43 16 43 2 0
-5 10 -10 23 -11 12 0 16 -3 10 -6 -9 -3 -13 -29 -13 -78 0 -64 2 -73 20 -78
17 -4 20 -15 22 -83 l3 -79 147 0 148 0 0 -77 c0 -46 -4 -78 -10 -78 -6 0 -10
-33 -10 -79 l0 -78 41 -6 c43 -6 107 1 124 13 17 11 95 12 95 1 0 -15 47 -14
53 2 3 6 6 2 6 -10 1 -12 6 -25 11 -28 6 -3 10 -11 10 -16 0 -6 -4 -7 -10 -4
-6 4 -10 -5 -10 -19 0 -14 5 -26 10 -26 6 0 3 -12 -6 -26 -16 -24 -16 -27 -1
-54 19 -32 22 -44 7 -35 -6 3 -10 -4 -10 -16 0 -28 38 -109 51 -109 17 0 23
32 12 61 -9 23 -8 29 2 29 9 0 15 -15 17 -42 l3 -43 111 3 111 4 9 -114 c5
-62 7 -129 4 -148 l-5 -35 -237 -3 c-202 -2 -238 -5 -238 -17 0 -8 5 -15 11
-15 5 0 8 -4 5 -9 -6 -10 -48 -3 -56 10 -5 6 -66 18 -102 19 -15 0 -18 10 -18
65 0 36 -3 65 -6 65 -16 0 -36 -34 -31 -55 5 -29 -7 -32 -31 -8 -12 12 -13 18
-4 21 6 2 12 12 12 23 0 10 5 19 10 19 6 0 10 5 10 10 0 6 -9 10 -20 10 -13 0
-20 -7 -20 -20 0 -11 -4 -20 -10 -20 -5 0 -10 -11 -10 -24 0 -25 -25 -43 -35
-26 -4 6 -16 10 -28 11 -12 0 -16 3 -9 6 6 2 13 14 13 26 1 17 2 18 6 5 4 -16
6 -16 19 -4 31 31 17 46 -41 46 -44 0 -57 4 -62 18 -11 28 -30 42 -57 42 -19
0 -26 5 -26 20 0 18 7 20 80 20 l80 0 0 29 0 29 -76 4 c-41 2 -86 0 -99 -4
-14 -3 -27 -2 -31 3 -3 5 -16 9 -30 9 -13 0 -24 5 -24 11 0 18 -30 41 -45 35
-9 -3 -15 0 -15 9 0 8 -9 15 -20 15 -13 0 -20 -7 -20 -20 0 -16 -7 -20 -30
-20 -27 0 -30 3 -30 30 0 27 3 30 30 30 23 0 30 4 30 20 0 11 5 20 10 20 6 0
10 -6 10 -12 0 -9 4 -8 10 2 17 26 11 30 -50 30 l-60 0 0 -30 c0 -28 -2 -30
-40 -30 -22 0 -40 -4 -40 -10 0 -5 -13 -10 -30 -10 -22 0 -30 -5 -31 -17 0
-12 -4 -8 -11 10 -5 15 -16 27 -24 27 -8 0 -17 7 -20 15 -4 8 -14 15 -23 16
-10 0 -8 3 8 10 15 6 21 14 17 25 -3 9 -6 38 -6 65 l0 49 -44 0 c-25 0 -47 4
-50 9 -3 4 15 8 40 8 44 0 71 12 47 20 -15 5 -17 43 -3 43 6 0 10 14 10 30 0
23 -4 30 -20 30 -11 0 -20 -4 -20 -10 0 -5 5 -10 10 -10 6 0 10 -9 10 -20 0
-11 -4 -20 -8 -20 -4 0 -14 9 -22 20 -8 11 -22 20 -31 20 -20 0 -62 -48 -56
-64 3 -7 -30 -11 -99 -12 -82 -1 -104 2 -109 14 -4 11 -8 12 -20 2 -12 -10
-15 -9 -15 9 0 27 -17 27 -25 1 -7 -23 -25 -27 -25 -5 0 8 -4 15 -10 15 -5 0
-10 -7 -10 -15 0 -24 -19 -17 -26 10 -7 28 -28 32 -50 10 -15 -15 -40 -10 -61
11 -7 6 -9 14 -6 18 4 3 -1 6 -10 6 -10 0 -17 -6 -17 -12 0 -26 -20 17 -20 45
0 23 4 27 30 27 17 0 30 5 30 10 0 6 -14 10 -30 10 l-30 0 2 83 3 82 -55 -1
c-83 -2 -279 -2 -330 1 -25 1 -57 3 -72 4 -18 1 -28 7 -28 16 0 8 -4 15 -10
15 -5 0 -10 -7 -10 -15 0 -8 -4 -15 -10 -15 -5 0 -10 11 -10 25 0 22 -4 25
-39 25 -36 0 -40 -3 -43 -27 l-4 -28 -13 27 c-11 21 -11 31 -2 42 9 11 9 15
-1 19 -7 3 -3 6 8 6 17 1 20 6 17 25 -3 13 0 27 6 30 6 4 11 40 11 86 0 78 0
79 -27 82 l-28 3 -3 555 c-2 524 -1 556 15 556 137 6 158 9 174 25 17 17 42
20 55 6z m2455 -3157 c0 -51 3 -69 9 -55 5 12 9 -51 9 -162 1 -123 5 -184 12
-189 8 -5 6 -10 -6 -16 -13 -8 -16 -22 -15 -71 1 -34 2 -97 1 -139 l-1 -77
-92 2 c-90 2 -93 1 -96 -20 -3 -20 -9 -23 -48 -23 -73 0 -79 -13 -77 -152 l1
-118 -31 -2 c-18 -1 -52 -2 -77 -3 -25 -1 -82 -2 -127 -3 -48 -1 -83 -6 -83
-12 0 -5 9 -10 20 -10 11 0 20 -4 20 -10 0 -5 -9 -10 -20 -10 -17 0 -20 -7
-22 -57 -1 -32 -1 -78 -1 -103 1 -25 -1 -35 -4 -22 -7 33 -31 27 -35 -10 -4
-38 -23 -48 -33 -17 -9 29 -50 69 -70 69 -8 0 -15 5 -15 10 0 6 -9 10 -20 10
-13 0 -20 -7 -20 -20 0 -13 7 -20 20 -20 15 0 20 -7 20 -24 0 -14 5 -28 10
-31 21 -13 9 -24 -14 -13 -20 8 -28 7 -40 -5 -9 -9 -16 -23 -16 -31 0 -23 -52
-17 -58 6 -2 10 -13 18 -23 18 -15 0 -19 -7 -19 -40 0 -42 -5 -46 -30 -30 -13
8 -12 10 3 10 9 0 17 5 17 10 0 6 -30 10 -69 10 -60 0 -69 2 -74 20 -3 12 -14
20 -26 20 -12 0 -21 5 -21 10 0 6 9 10 20 10 17 0 20 7 20 41 0 24 -4 38 -10
34 -5 -3 -10 -11 -10 -16 0 -13 -26 -39 -39 -39 -5 0 -21 -15 -35 -32 -15 -20
-26 -27 -26 -18 0 18 43 70 58 70 13 0 38 40 34 54 -2 5 4 6 12 3 21 -8 28 6
18 34 l-9 23 -18 -27 c-9 -15 -22 -24 -27 -21 -5 3 1 17 13 30 l22 24 -21 0
c-17 0 -22 6 -22 28 1 26 1 26 13 7 7 -12 20 -19 30 -17 21 4 23 38 2 46 -20
7 -19 21 3 24 9 1 73 3 142 5 69 1 131 6 138 10 21 14 15 40 -8 34 -11 -3 -23
-1 -26 5 -3 5 3 12 15 15 26 7 30 53 4 53 -13 0 -12 3 5 19 12 10 19 21 15 25
-3 3 1 6 10 6 10 0 17 -4 17 -10 0 -5 5 -10 10 -10 6 0 10 18 10 40 l0 40 -44
0 c-39 0 -44 2 -39 20 4 16 14 20 50 20 53 0 72 16 74 62 2 30 3 29 12 -14 8
-36 15 -48 29 -48 12 0 18 7 18 24 0 14 5 28 10 31 6 3 10 -1 10 -10 0 -19 28
-50 37 -42 3 4 7 76 8 162 2 112 0 159 -9 167 -18 17 17 48 54 48 23 0 30 4
30 20 0 11 5 20 10 20 6 0 10 18 10 40 0 22 -4 40 -10 40 -5 0 -10 9 -10 21 0
18 5 20 38 17 32 -3 37 0 40 20 3 19 -1 22 -27 22 -17 0 -31 -4 -31 -10 0 -5
-6 -10 -14 -10 -9 0 -12 7 -9 20 4 16 14 20 44 20 32 0 39 3 39 20 0 18 -7 20
-56 20 -35 0 -53 4 -49 10 4 6 11 8 16 5 5 -4 9 1 9 9 0 9 5 16 10 16 6 0 10
-4 10 -10 0 -18 58 -11 62 8 3 15 17 17 115 17 103 0 113 2 131 23 25 28 68
30 75 2 3 -14 14 -20 31 -20 26 0 26 1 26 75 0 61 3 75 15 75 9 0 18 6 21 14
5 12 9 12 25 -2 15 -13 19 -30 20 -92z m1079 97 c0 -5 12 -8 28 -7 77 5 92 1
92 -26 0 -14 7 -32 15 -40 12 -12 15 -12 15 -2 0 10 2 10 9 -1 5 -8 19 -12 35
-9 14 3 26 2 26 -3 0 -4 -17 -11 -37 -15 -41 -8 -63 -24 -63 -48 0 -19 2 -19
140 -20 l105 -1 9 -47 c9 -48 26 -66 26 -29 0 11 5 23 10 26 6 3 10 -1 10 -9
0 -9 5 -16 11 -16 11 0 10 -18 -7 -92 l-6 -28 58 0 c42 0 55 -3 44 -10 -8 -5
-30 -10 -47 -10 -23 0 -33 -5 -33 -16 0 -8 -6 -22 -14 -30 -8 -8 -22 -14 -30
-14 -9 0 -16 -8 -16 -20 0 -16 7 -20 30 -20 23 0 30 4 30 20 0 17 7 20 45 20
25 0 45 -4 45 -10 0 -5 -11 -10 -25 -10 -14 0 -25 -4 -25 -10 0 -5 11 -10 24
-10 20 0 24 -6 30 -40 3 -22 9 -40 12 -40 15 0 34 31 34 55 0 15 4 24 10 20 6
-3 10 -26 10 -51 0 -33 4 -44 16 -44 21 0 44 24 44 47 0 15 2 16 10 3 16 -25
11 -65 -10 -80 -27 -20 -25 -28 8 -32 l27 -3 3 -97 c1 -54 7 -98 11 -98 5 0
15 7 22 17 11 13 11 17 2 20 -20 7 -15 23 7 23 15 0 20 -7 20 -26 0 -29 -21
-54 -44 -54 -9 0 -16 -8 -16 -20 0 -12 7 -20 16 -20 18 0 37 -17 47 -42 4 -12
2 -18 -8 -18 -8 0 -15 -4 -15 -10 0 -5 5 -10 10 -10 6 0 10 -30 10 -70 0 -63
2 -70 20 -70 18 0 20 7 20 80 0 47 4 80 10 80 6 0 10 -33 10 -80 l0 -80 63 0
c34 0 79 -3 100 -6 31 -6 37 -11 37 -30 0 -13 6 -24 13 -25 10 0 10 -2 0 -6
-17 -6 -16 -32 1 -39 13 -5 11 -54 -3 -52 -18 2 -31 -3 -31 -12 0 -5 12 -10
28 -10 24 -1 25 -2 10 -14 -10 -7 -18 -16 -18 -20 0 -13 28 -36 43 -36 8 0 15
-6 14 -12 -2 -58 0 -60 53 -56 28 1 50 -1 50 -6 0 -5 34 -6 79 -2 44 3 82 3
84 -1 11 -21 17 -64 7 -58 -11 7 -12 2 -19 -77 0 -10 -8 -18 -16 -18 -8 0 -15
-4 -15 -10 0 -5 18 -10 40 -10 22 0 40 -4 40 -10 0 -5 -7 -10 -15 -10 -23 0
-65 -46 -65 -70 0 -11 -5 -20 -11 -20 -7 0 -9 10 -5 26 7 26 6 27 -28 21 -51
-8 -76 17 -76 77 0 50 -4 54 -26 32 -9 -9 -10 -17 -4 -21 12 -8 -5 -45 -22
-45 -7 0 -6 5 2 15 14 17 5 36 -15 28 -8 -3 -15 0 -15 7 0 6 -4 8 -10 5 -5 -3
-10 3 -10 14 0 11 5 23 10 26 19 12 10 25 -15 23 -14 -1 -25 -6 -25 -11 0 -5
-7 -2 -15 7 -20 20 -19 35 6 57 22 19 22 56 0 51 -6 -1 -18 12 -26 30 -13 31
-14 31 -15 8 0 -14 -5 -32 -10 -40 -7 -11 -10 -2 -10 33 l0 47 -40 0 -40 0 0
-47 c0 -51 -8 -52 -20 -1 -8 30 -9 31 -15 11 -5 -17 -15 -23 -36 -23 -16 0
-29 -4 -29 -9 0 -5 -7 -12 -16 -15 -13 -5 -15 -1 -10 19 4 14 2 25 -4 25 -5 0
-9 3 -9 8 6 34 -3 52 -25 52 -26 0 -36 21 -36 83 l0 37 -80 0 c-73 0 -80 2
-80 20 0 18 -7 20 -76 20 -93 0 -91 14 2 18 65 3 83 7 73 16 -2 2 -37 6 -76 8
-61 4 -73 2 -74 -11 -1 -12 -3 -11 -6 3 -4 16 -12 17 -70 13 -89 -8 -93 -5
-93 61 0 54 0 55 -20 37 -20 -19 -27 -45 -11 -45 5 0 11 -9 14 -20 3 -13 0
-20 -8 -20 -7 0 -15 -4 -17 -9 -1 -4 -12 -5 -23 0 -17 6 -17 8 -2 8 21 1 23
21 2 21 -8 0 -15 5 -15 10 0 6 5 10 10 10 6 0 10 7 10 15 0 8 14 28 30 45 22
22 30 40 30 65 0 19 -4 35 -10 35 -5 0 -10 -4 -10 -10 0 -5 -4 -10 -10 -10 -5
0 -10 13 -10 29 0 16 -6 32 -12 35 -10 5 -10 7 0 12 6 3 12 14 12 25 0 16 -7
19 -40 19 -33 0 -40 -3 -40 -19 0 -11 6 -22 13 -25 10 -5 10 -7 0 -12 -7 -3
-13 -16 -13 -28 0 -30 -9 -38 -26 -21 -16 16 -19 45 -4 45 6 0 10 15 9 33 l-1
32 -10 -32 c-13 -41 -48 -47 -48 -8 0 31 -31 48 -81 43 l-39 -4 -2 121 c0 66
0 127 1 135 6 57 -2 436 -9 438 -13 5 -13 42 0 42 6 0 10 11 10 25 0 19 -5 25
-22 26 -21 1 -21 2 -3 6 11 3 23 8 27 12 11 10 98 8 98 -2z m-1229 -912 c5 4
9 1 9 -4 0 -6 -9 -11 -20 -11 -22 0 -24 8 -13 37 7 16 8 16 11 -5 2 -12 8 -20
13 -17z m-951 -520 c0 -8 -2 -15 -4 -15 -2 0 -6 7 -10 15 -3 8 -1 15 4 15 6 0
10 -7 10 -15z m-90 -22 c14 -6 36 -15 50 -21 l25 -11 -28 0 c-73 -2 -74 -74
-1 -83 l29 -4 -30 -9 c-40 -11 -63 -34 -46 -45 9 -5 10 -10 2 -14 -23 -15 -11
-36 22 -37 l32 -1 -35 -8 c-40 -10 -50 -6 -50 21 0 12 -7 19 -20 19 -13 0 -20
-7 -20 -20 0 -18 -7 -20 -80 -20 -45 0 -80 4 -80 10 0 5 -8 6 -17 3 -12 -5
-15 -2 -11 9 4 9 1 21 -5 27 -8 8 -5 11 11 11 12 0 22 -4 22 -10 0 -5 9 -10
20 -10 11 0 20 5 20 10 0 6 9 10 20 10 11 0 20 5 20 10 0 6 -14 10 -31 10 -17
0 -37 7 -45 15 -9 8 -11 15 -5 15 8 0 10 21 7 63 l-5 64 90 0 c50 1 93 4 96 7
3 3 9 4 12 3 3 -2 17 -8 31 -14z m3727 -329 c-3 -3 -12 -4 -19 -1 -8 3 -5 6 6
6 11 1 17 -2 13 -5z"/>
<path d="M6905 7530 c-4 -6 20 -10 64 -10 41 0 71 4 71 10 0 6 -28 10 -64 10
-36 0 -68 -4 -71 -10z"/>
<path d="M6360 7220 c0 -16 7 -20 30 -20 34 0 37 5 16 26 -21 21 -46 17 -46
-6z"/>
<path d="M6680 7220 c0 -13 7 -20 20 -20 13 0 20 7 20 20 0 13 -7 20 -20 20
-13 0 -20 -7 -20 -20z"/>
<path d="M6380 7150 c0 -5 -7 -10 -15 -10 -20 0 -65 -44 -65 -64 0 -8 -6 -16
-12 -19 -23 -8 -4 -15 42 -17 73 -3 70 -5 70 60 0 33 -4 60 -10 60 -5 0 -10
-4 -10 -10z"/>
<path d="M5978 6963 c7 -3 16 -2 19 1 4 3 -2 6 -13 5 -11 0 -14 -3 -6 -6z"/>
<path d="M5900 6730 c0 -5 5 -10 10 -10 6 0 10 5 10 10 0 6 -4 10 -10 10 -5 0
-10 -4 -10 -10z"/>
<path d="M7200 6690 c0 -34 5 -37 26 -16 21 21 17 46 -6 46 -16 0 -20 -7 -20
-30z"/>
<path d="M7200 6570 c0 -5 5 -10 10 -10 6 0 10 5 10 10 0 6 -4 10 -10 10 -5 0
-10 -4 -10 -10z"/>
<path d="M7307 6500 c-4 -15 0 -20 13 -20 13 0 17 5 13 20 -3 11 -9 20 -13 20
-4 0 -10 -9 -13 -20z"/>
<path d="M7281 6494 c0 -11 3 -14 6 -6 3 7 2 16 -1 19 -3 4 -6 -2 -5 -13z"/>
<path d="M5580 6410 c0 -5 5 -10 10 -10 6 0 10 5 10 10 0 6 -4 10 -10 10 -5 0
-10 -4 -10 -10z"/>
<path d="M6560 6220 c0 -24 6 -25 26 -6 19 20 18 26 -6 26 -13 0 -20 -7 -20
-20z"/>
<path d="M5260 6215 c0 -8 5 -15 10 -15 6 0 10 7 10 15 0 8 -4 15 -10 15 -5 0
-10 -7 -10 -15z"/>
<path d="M6600 6130 c0 -5 5 -10 10 -10 6 0 10 5 10 10 0 6 -4 10 -10 10 -5 0
-10 -4 -10 -10z"/>
<path d="M1443 7528 c2 -7 11 -12 20 -12 10 1 26 2 38 3 34 2 10 21 -27 21
-24 0 -34 -4 -31 -12z"/>
<path d="M1920 7220 c0 -16 7 -20 30 -20 23 0 30 4 30 20 0 16 -7 20 -30 20
-23 0 -30 -4 -30 -20z"/>
<path d="M2080 7020 c0 -13 7 -20 20 -20 13 0 20 7 20 20 0 13 -7 20 -20 20
-13 0 -20 -7 -20 -20z"/>
<path d="M2080 6910 c0 -27 3 -30 30 -30 33 0 40 21 16 46 -25 24 -46 17 -46
-16z"/>
<path d="M2200 6900 c0 -16 7 -20 30 -20 23 0 30 4 30 20 0 16 -7 20 -30 20
-23 0 -30 -4 -30 -20z"/>
<path d="M1100 6645 c0 -43 4 -75 10 -75 6 0 10 32 10 75 0 43 -4 75 -10 75
-6 0 -10 -32 -10 -75z"/>
<path d="M1020 6540 c0 -13 7 -20 20 -20 13 0 20 7 20 20 0 13 -7 20 -20 20
-13 0 -20 -7 -20 -20z"/>
<path d="M1080 6531 c0 -25 4 -31 21 -31 16 0 20 5 17 27 -2 17 -10 29 -20 31
-14 3 -18 -3 -18 -27z"/>
<path d="M2720 6480 c0 -22 5 -40 10 -40 6 0 10 18 10 40 0 22 -4 40 -10 40
-5 0 -10 -18 -10 -40z"/>
<path d="M2720 6410 c0 -5 5 -10 10 -10 6 0 10 5 10 10 0 6 -4 10 -10 10 -5 0
-10 -4 -10 -10z"/>
<path d="M1720 6230 c0 -5 9 -10 20 -10 11 0 20 5 20 10 0 6 -9 10 -20 10 -11
0 -20 -4 -20 -10z"/>
<path d="M2080 6220 c0 -11 5 -20 10 -20 6 0 10 5 10 10 0 6 9 10 20 10 11 0
20 5 20 10 0 6 -13 10 -30 10 -23 0 -30 -4 -30 -20z"/>
<path d="M2180 6230 c0 -5 9 -10 20 -10 11 0 20 -4 20 -10 0 -5 5 -10 10 -10
6 0 10 9 10 20 0 16 -7 20 -30 20 -16 0 -30 -4 -30 -10z"/>
<path d="M1720 6171 c0 -5 11 -11 24 -13 17 -4 23 -1 19 9 -6 14 -43 18 -43 4z"/>
<path d="M2080 6149 c0 -17 4 -28 10 -24 6 3 10 13 10 21 0 8 5 14 10 14 6 0
10 5 10 10 0 6 -9 10 -20 10 -16 0 -20 -7 -20 -31z"/>
<path d="M1875 6150 c3 -5 8 -10 11 -10 2 0 4 5 4 10 0 6 -5 10 -11 10 -5 0
-7 -4 -4 -10z"/>
<path d="M2300 5910 c0 -5 23 -10 50 -10 28 0 50 -4 50 -10 0 -5 5 -10 10 -10
6 0 10 9 10 20 0 18 -7 20 -60 20 -33 0 -60 -4 -60 -10z"/>
<path d="M2570 5900 c0 -11 7 -20 15 -20 8 0 15 9 15 20 0 11 -7 20 -15 20 -8
0 -15 -9 -15 -20z"/>
<path d="M2660 5904 c0 -20 24 -44 44 -44 11 0 16 9 16 30 0 27 -3 30 -30 30
-21 0 -30 -5 -30 -16z"/>
<path d="M2680 5785 c0 -8 9 -15 20 -15 11 0 20 7 20 15 0 8 -9 15 -20 15 -11
0 -20 -7 -20 -15z"/>
<path d="M3360 5781 c0 -12 5 -21 10 -21 6 0 10 6 10 14 0 8 -4 18 -10 21 -5
3 -10 -3 -10 -14z"/>
<path d="M3180 4400 c0 -11 5 -20 10 -20 6 0 10 9 10 20 0 11 -4 20 -10 20 -5
0 -10 -9 -10 -20z"/>
<path d="M3405 4001 c-10 -17 4 -31 31 -31 19 0 25 5 22 18 -4 19 -43 29 -53
13z"/>
<path d="M3360 3980 c0 -11 5 -20 10 -20 6 0 10 9 10 20 0 11 -4 20 -10 20 -5
0 -10 -9 -10 -20z"/>
<path d="M2892 3870 c0 -19 2 -27 5 -17 2 9 2 25 0 35 -3 9 -5 1 -5 -18z"/>
<path d="M2933 3885 c-26 -28 -15 -45 27 -45 43 0 53 18 26 46 -18 18 -37 17
-53 -1z"/>
<path d="M3020 3870 c0 -16 5 -30 10 -30 6 0 10 14 10 30 0 17 -4 30 -10 30
-5 0 -10 -13 -10 -30z"/>
<path d="M2844 3778 c3 -13 6 -29 6 -35 0 -7 7 -13 15 -13 10 0 15 11 15 35 0
29 -4 35 -21 35 -17 0 -20 -4 -15 -22z"/>
<path d="M2857 3703 c-12 -11 -8 -23 8 -23 8 0 15 7 15 15 0 16 -12 20 -23 8z"/>
<path d="M2720 3490 c0 -33 21 -40 46 -16 24 25 17 46 -16 46 -27 0 -30 -3
-30 -30z"/>
<path d="M4800 4660 c0 -11 5 -20 10 -20 6 0 10 9 10 20 0 11 -4 20 -10 20 -5
0 -10 -9 -10 -20z"/>
<path d="M5293 4205 c-23 -26 -15 -45 17 -45 27 0 30 3 30 30 0 33 -25 41 -47
15z"/>
<path d="M4774 3984 c3 -9 6 -18 6 -20 0 -3 5 -2 10 1 16 10 12 35 -6 35 -11
0 -14 -5 -10 -16z"/>
<path d="M4940 3970 c0 -16 5 -30 10 -30 6 0 10 14 10 30 0 17 -4 30 -10 30
-5 0 -10 -13 -10 -30z"/>
<path d="M5440 3780 c0 -60 4 -100 10 -100 6 0 10 33 10 79 0 55 4 81 13 84 9
3 9 7 -2 20 -26 32 -31 17 -31 -83z"/>
<path d="M5600 3510 c0 -5 5 -10 10 -10 6 0 10 5 10 10 0 6 -4 10 -10 10 -5 0
-10 -4 -10 -10z"/>
<path d="M5552 3464 c-11 -12 -10 -17 3 -30 21 -21 45 -10 45 21 0 29 -26 34
-48 9z"/>
<path d="M5930 3190 c0 -5 7 -10 15 -10 8 0 15 5 15 10 0 6 -7 10 -15 10 -8 0
-15 -4 -15 -10z"/>
<path d="M2395 3200 c-4 -7 -3 -16 3 -22 14 -14 45 -2 40 15 -6 16 -34 21 -43
7z"/>
</g>
</svg>
